<?xml version="1.0" encoding="utf-8"?>
<!-- Generator: Adobe Illustrator 27.5.0, SVG Export Plug-In . SVG Version: 6.00 Build 0)  -->
<svg version="1.1" id="_x2018_лой_x5F_1" xmlns="http://www.w3.org/2000/svg" xmlns:xlink="http://www.w3.org/1999/xlink"
	 x="0px" y="0px" viewBox="0 0 3200 2000" style="enable-background:new 0 0 3200 2000;" xml:space="preserve">
<rect style="fill:#FFFFFF;" width="3200" height="2000"/>
<g>
	<path style="fill:#EBF3FA;" d="M278.866,1796.697c0,0-200.384-152.684-60.658-517.661
		c82.374-215.17,360.251-182.133,346.193-568.595C550.342,323.979,962.978,5.729,1556.075,222.719
		c193.332,70.732,284.25,175.915,432.152,118.785c286.521-110.673,678.32-65.039,690.701,289.969
		c19.645,563.271,311.266,311.921,335.097,722.84c8.121,140.031-10.087,284.14-159.573,442.384H278.866z"/>
	<g style="opacity:0.5;">
		<path style="opacity:0.5;fill:#AFCDFB;" d="M1481.78,701.995c0,0-25.881-216.784-136.964-346.153
			c-14.762-17.192-43.017-6.247-42.542,16.409c0.008,0.378,0.019,0.76,0.033,1.146
			C1303.746,412.068,1428.119,575.189,1481.78,701.995z"/>
		<path style="opacity:0.5;fill:#AFCDFB;" d="M1495.281,764.057c0,0-110.693-270.959-299.761-390.794
			c-11.529-7.307-27.143-4.657-34.872,6.593c-5.034,7.326-7.296,18.772-1.646,36.645
			C1174.066,464.159,1384.932,624.58,1495.281,764.057z"/>
	</g>
	<path style="fill:#DFEBFD;" d="M1227.417,607.698c0,0-7.008,166.255-37.863,163.04c-30.855-3.215,21.165-184.694,21.165-184.694
		s-131.511-105.594-190.911-113.463c0,0,55.706,176.869,26.592,166.158c-29.114-10.711-95.629-192.066-95.629-192.066
		s-145.268-63.361-190.52,20.934c-45.252,84.296-16.342,138.412,4.841,149.256c21.183,10.844,165.918,42.48,157.818,60.35
		c-8.1,17.87-112.513,25.224-162.943-4.263c0,0,25.588,161.975,106.038,172.757c80.45,10.782,116.127-32.285,165.723-24.718
		c49.595,7.567,82.155,28.954,54.747,36.415c-27.409,7.461-107.818-20.507-154.942,3.811c-47.125,24.318-83.77,37.534-14.164,69.499
		c69.605,31.965,202.963,53.059,242.255,2.931c1.713-2.185,3.347-4.27,4.914-6.268c-2.663,4.276-4.914,6.268-4.914,6.268
		c11.657,10.997,23.166,53.199,30.515,85.234c0.861,5.36,2.452,12.873,5.016,23.165l0,0.001c0.939,4.601,1.672,8.359,2.173,10.979
		c10.793,70.445-28.706,178.591-28.706,178.591l14.64,7.819c60.653-104.152,21.365-210.409,21.365-210.409
		c-22.382-82.226-5.711-145.508-5.711-145.508s158.831-46.069,118.046-168.121C1316.961,715.396,1279.721,637.62,1227.417,607.698z"
		/>
	<path style="opacity:0.5;fill:#AFCDFB;" d="M2483.956,572.183c-4.471-93.673-159.729-98.905-159.729-98.905
		s-135.364,132.389-165.643,129.583c-30.277-2.807,93.632-135.788,93.632-135.788c-55.875-18.1-216.78,19.838-216.78,19.838
		s-30.543,182.511-59.199,172.337c-28.654-10.173,35.291-160.224,35.291-160.224c-58.9,4.406-124.664,57.506-124.664,57.506
		c-87.579,90.777,33.508,198.549,33.508,198.549s-11.949,63.021-66.443,126.328l-0.003,0.002c0,0-11.648,11.338-25.486,31.925
		l15.063,3.318c2.119-3.769,4.335-7.374,6.662-10.792c0.007-0.029,0.021-0.046,0.044-0.061c0.034-0.05,0.068-0.098,0.103-0.148
		c1.544-2.101,3.757-5.086,6.493-8.713c0.004-0.004,0.008-0.009,0.011-0.013c0.002-0.01,0.012-0.007,0.014-0.017
		c6.586-7.995,11.161-13.965,14.186-18.336c0.011-0.014,0.019-0.027,0.025-0.042c20.017-25.241,47.996-57.711,62.946-62.521
		c0,0-1.15-2.712-1.702-7.619c0.543,2.429,1.109,4.962,1.702,7.619c13.614,60.929,140.502,98.531,215.572,99.618
		c75.069,1.086,48.224-26.067,16.79-67.465c-31.433-41.398-114.375-50.579-135.477-68.744
		c-21.103-18.164,16.729-23.349,63.801-9.119c47.071,14.23,60.467,67.386,136.193,91.789
		c75.728,24.403,166.705-108.107,166.705-108.107c-57.059,4.812-146.334-45.748-145.961-64.976
		c0.373-19.228,141.774,13.848,165.092,13.19C2440.018,701.537,2488.428,665.855,2483.956,572.183z"/>
	<g>
		<g>
			<g>
				<path style="fill:#F9DDBF;" d="M1934.285,614.817l-60.728,143.174l-119.528,281.802c-1.349-0.552-2.685-1.078-4.033-1.605
					c-34.616-13.533-72.273-20.962-111.671-20.962c-29.26,0-57.552,4.095-84.348,11.731c-13.116,3.751-25.877,8.348-38.221,13.729
					l-17.21-33.611l-0.024-0.037v-0.012l-0.012-0.024l-122.324-239.033l-70.876-138.492
					c100.75-48.542,213.708-75.743,333.016-75.743c104.599,0,204.306,20.913,295.188,58.766h0.012
					C1933.77,614.608,1934.027,614.706,1934.285,614.817z"/>
			</g>
			<g>
				<path style="fill:#88B9FF;" d="M1388.272,1146.193c-1.066,1.495-2.121,3.003-3.175,4.523
					c-33.784,49.29-53.58,108.938-53.605,173.194v0.147H870.012c0-150.983,43.541-291.792,118.769-410.561l134.533,78.366
					L1388.272,1146.193z"/>
			</g>
			<g>
				<path style="fill:#AFCDFB;" d="M1515.756,1042.686c-1.165,0.516-2.329,1.018-3.469,1.545c-0.221,0.098-0.441,0.196-0.662,0.294
					c-49.571,22.506-92.095,57.81-123.353,101.669l-264.959-154.33L988.78,913.498c76.748-121.159,186.458-219.371,316.529-282.022
					l70.876,138.492l122.324,239.033l0.012,0.024v0.012l0.024,0.037L1515.756,1042.686z"/>
			</g>
			<g>
				<path style="fill:#EA642F;" d="M1945.158,1324.059v-0.147c-0.025-63.239-19.196-122.017-52.023-170.829
					c-0.883-1.323-1.79-2.647-2.697-3.959l264.824-154.256l134.508-78.354c74.063,118.131,116.881,257.849,116.881,407.545H1945.158
					z"/>
			</g>
			<g>
				<path style="fill:#F99746;" d="M2289.77,916.513l-134.508,78.354l-264.824,154.256
					c-33.526-48.235-80.561-86.395-135.624-108.999c-0.257-0.123-0.526-0.221-0.784-0.331l119.528-281.802l60.728-143.174
					C2081.688,676.389,2205.802,782.581,2289.77,916.513z"/>
			</g>
		</g>
		<g>
			<path style="fill:#FFEBD9;" d="M1754.813,1040.124c-0.257-0.123-0.526-0.221-0.784-0.331c-1.349-0.552-2.685-1.078-4.033-1.605
				c-34.616-13.533-72.273-20.962-111.671-20.962c-29.26,0-57.552,4.095-84.348,11.731c-13.116,3.751-25.877,8.348-38.221,13.729
				c-1.165,0.516-2.329,1.018-3.469,1.545l-136.102-274.263c79.481-37.694,168.341-58.766,262.14-58.766
				c83.355,0,162.8,16.646,235.232,46.789C1873.619,758.016,1754.813,1040.124,1754.813,1040.124z"/>
		</g>
		<g>
			<path style="fill:#97C6FF;" d="M1385.097,1150.717c-33.784,49.29-53.58,108.938-53.605,173.194h-305.864
				c0-120.411,37.694-237.329,97.685-332.047L1385.097,1150.717z"/>
		</g>
		<g>
			<path style="fill:#BBD5F9;" d="M1512.287,1044.23c-0.221,0.098-0.441,0.196-0.662,0.294
				c-49.571,22.506-92.095,57.81-123.353,101.669c-1.066,1.495-2.121,3.003-3.175,4.523l-261.784-158.853
				c61.045-94.498,150.824-172.729,252.873-221.896L1512.287,1044.23z"/>
		</g>
		<g>
			<path style="fill:#FC7A4C;" d="M2247.442,1323.911h-302.807c-0.024-63.945-19.004-123.379-51.501-172.735l262.033-155.904
				C2213.635,1090.527,2247.442,1203.185,2247.442,1323.911z"/>
		</g>
		<g>
			<path style="fill:#F7A76B;" d="M1893.135,1153.082c-0.883-1.323-1.79-2.647-2.697-3.959
				c-33.526-48.235-80.561-86.395-135.624-108.999l118.744-282.133c116.061,48.481,214.812,131.983,281.704,236.876
				C2156.132,996.203,1893.135,1153.082,1893.135,1153.082z"/>
		</g>
		<g>
			<path style="fill:#AEC3FF;" d="M1837.43,1324.064h-398.197c0-46.545,15.971-89.371,42.748-123.279
				c17.993-22.801,40.872-41.568,67.064-54.732c5.189-2.605,10.513-4.998,15.949-7.154c12.434-4.931,25.474-8.637,38.985-10.984
				c11.153-1.943,22.632-2.954,34.347-2.954c24.171,0,47.341,4.313,68.783,12.208c1.628,0.585,3.234,1.214,4.84,1.854
				c33.887,13.489,63.179,36.009,84.923,64.594C1822.322,1237.052,1837.43,1278.8,1837.43,1324.064z"/>
		</g>
		<g>
			<path style="fill:#88B9FF;" d="M1770.488,1324.064h-264.315c0-34.324,13.085-65.582,34.526-89.079
				c9.176-10.052,19.869-18.679,31.729-25.507c7.346-4.234,15.141-7.784,23.283-10.559c12.771-4.346,26.417-6.795,40.603-6.997
				c0.674-0.022,1.337-0.022,2.011-0.022c14.725,0,28.876,2.404,42.107,6.852c1.808,0.606,3.594,1.247,5.357,1.932
				c20.476,7.874,38.479,20.7,52.575,37.009C1758.381,1260.863,1770.488,1291.043,1770.488,1324.064z"/>
		</g>
		<g>
			<g>
				<path style="fill:#2B478B;" d="M1646.457,1309.648c-6.154,2.121-12.988,2.529-19.766,0.798c-1.06-0.272-2.103-0.585-3.116-0.953
					c-1.027-0.367-2.022-0.775-2.986-1.226c-13.562-6.31-21.638-20.839-19.659-35.837c0.026-0.258,0.09-0.513,0.17-0.756
					l4.222-13.526l-0.009-0.007l16.589-53.224l18.78-60.256l30.065-96.446l10.499-33.688l0.003-0.037l0.006-0.009l0.005-0.022
					l57.731-185.228c0.662-2.136,2.88-3.368,5.037-2.82l7.07,1.797c2.144,0.55,3.49,2.669,3.072,4.848l-43.213,227.735
					l-19.291,101.7l-12.485,65.782l-9.784,51.563l-1.376,7.262l-0.293,1.534c-0.047,0.268-0.126,0.525-0.219,0.784
					C1663.745,1299.169,1655.884,1306.42,1646.457,1309.648z"/>
			</g>
			<path style="fill:#F9DDBF;" d="M1621.108,1267.885c3.134-8.082,12.228-12.093,20.31-8.959c8.082,3.135,12.093,12.228,8.958,20.31
				c-3.134,8.082-12.228,12.094-20.31,8.959S1617.974,1275.967,1621.108,1267.885z"/>
		</g>
	</g>
	<g>
		<path style="fill:#FFFFFF;" d="M1237.847,958.277h4.151l13.658,17.626v-17.626h4.406v25.493h-3.751l-14.057-18.137v18.137h-4.407
			V958.277z"/>
		<path style="fill:#FFFFFF;" d="M1265.487,971.023c0-7.174,5.535-13.183,13.366-13.183s13.293,5.935,13.293,13.183
			c0,7.174-5.535,13.184-13.366,13.184C1270.95,984.207,1265.487,978.27,1265.487,971.023z M1287.448,971.023
			c0-4.953-3.605-9.069-8.667-9.069c-5.062,0-8.594,4.042-8.594,9.069c0,4.953,3.605,9.068,8.667,9.068
			S1287.448,976.048,1287.448,971.023z"/>
		<path style="fill:#FFFFFF;" d="M1297.569,958.277h11.363c5.973,0,9.469,3.204,9.469,8.12c0,4.189-2.513,6.702-6.082,7.721
			l6.883,9.651h-5.281l-6.336-8.886h-5.537v8.886h-4.48V958.277z M1308.605,970.914c3.205,0,5.244-1.676,5.244-4.333
			c0-2.732-1.967-4.226-5.281-4.226h-6.52v8.559H1308.605z"/>
		<path style="fill:#FFFFFF;" d="M1323.899,958.277h4.771l7.758,12.055l7.757-12.055h4.771v25.493h-4.48v-18.283l-8.048,12.019
			h-0.146l-7.976-11.945v18.209h-4.407V958.277z"/>
		<path style="fill:#FFFFFF;" d="M1364.54,958.094h4.152l11.218,25.676h-4.735l-2.585-6.154h-12.054l-2.622,6.154h-4.589
			L1364.54,958.094z M1370.95,973.645l-4.406-10.197l-4.37,10.197H1370.95z"/>
		<path style="fill:#FFFFFF;" d="M1384.277,958.277h4.48v21.414h13.401v4.079h-17.881V958.277z"/>
	</g>
	<g>
		<path style="fill:#FFFFFF;" d="M1560.001,769.823h18.901v4.005h-14.422v6.629h12.783v4.005h-12.783v6.848h14.604v4.005h-19.083
			V769.823z"/>
		<path style="fill:#FFFFFF;" d="M1591.756,782.35l-8.923-12.527h5.281l6.336,9.141l6.375-9.141h5.135l-8.886,12.455l9.249,13.038
			h-5.28l-6.7-9.651l-6.738,9.651h-5.135L1591.756,782.35z"/>
		<path style="fill:#FFFFFF;" d="M1607.998,782.569c0-7.246,5.426-13.183,13.147-13.183c4.698,0,7.539,1.639,9.979,3.97
			l-2.878,3.314c-2.04-1.893-4.225-3.167-7.139-3.167c-4.879,0-8.413,4.005-8.413,9.067c0,4.99,3.534,9.069,8.413,9.069
			c3.133,0,5.136-1.275,7.32-3.315l2.878,2.914c-2.659,2.768-5.572,4.517-10.344,4.517
			C1613.533,795.753,1607.998,789.962,1607.998,782.569z"/>
		<path style="fill:#FFFFFF;" d="M1636.002,769.823h18.901v4.005h-14.422v6.629h12.782v4.005h-12.782v6.848h14.604v4.005h-19.083
			V769.823z"/>
		<path style="fill:#FFFFFF;" d="M1658.689,791.601l2.695-3.205c2.439,2.112,4.88,3.314,8.049,3.314
			c2.767,0,4.516-1.275,4.516-3.278c0-1.821-1.02-2.804-5.754-3.933c-5.428-1.274-8.486-2.877-8.486-7.648
			c0-4.369,3.643-7.393,8.705-7.393c3.714,0,6.664,1.129,9.249,3.206l-2.403,3.386c-2.294-1.712-4.589-2.622-6.92-2.622
			c-2.622,0-4.151,1.348-4.151,3.096c0,1.966,1.166,2.841,6.046,4.005c5.39,1.311,8.194,3.241,8.194,7.539
			c0,4.771-3.751,7.612-9.104,7.612C1665.427,795.68,1661.748,794.333,1658.689,791.601z"/>
		<path style="fill:#FFFFFF;" d="M1681.632,791.601l2.694-3.205c2.44,2.112,4.881,3.314,8.05,3.314c2.767,0,4.515-1.275,4.515-3.278
			c0-1.821-1.02-2.804-5.754-3.933c-5.427-1.274-8.486-2.877-8.486-7.648c0-4.369,3.644-7.393,8.705-7.393
			c3.715,0,6.665,1.129,9.25,3.206l-2.403,3.386c-2.294-1.712-4.589-2.622-6.92-2.622c-2.622,0-4.152,1.348-4.152,3.096
			c0,1.966,1.166,2.841,6.047,4.005c5.389,1.311,8.194,3.241,8.194,7.539c0,4.771-3.752,7.612-9.105,7.612
			C1688.369,795.68,1684.69,794.333,1681.632,791.601z"/>
		<path style="fill:#FFFFFF;" d="M1553.155,813.522h4.844l6.082,18.902l6.264-18.975h3.788l6.264,18.975l6.082-18.902h4.699
			l-8.886,25.676h-3.86l-6.265-18.318l-6.264,18.318h-3.861L1553.155,813.522z"/>
		<path style="fill:#FFFFFF;" d="M1595.763,813.522h18.901v4.007h-14.422v6.628h12.784v4.007h-12.784v6.846h14.604v4.006h-19.083
			V813.522z"/>
		<path style="fill:#FFFFFF;" d="M1620.416,813.522h4.48v25.494h-4.48V813.522z"/>
		<path style="fill:#FFFFFF;" d="M1630.576,826.269c0-7.139,5.463-13.184,13.147-13.184c4.442,0,7.174,1.237,9.796,3.458
			l-2.841,3.388c-1.966-1.675-3.896-2.731-7.137-2.731c-4.699,0-8.269,4.115-8.269,9.069c0,5.244,3.46,9.105,8.669,9.105
			c2.403,0,4.589-0.766,6.154-1.93v-4.771h-6.52v-3.898h10.853v10.708c-2.512,2.148-6.117,3.969-10.634,3.969
			C1635.82,839.452,1630.576,833.771,1630.576,826.269z"/>
		<path style="fill:#FFFFFF;" d="M1660.257,813.522h4.479v10.599h12.164v-10.599h4.479v25.494h-4.479v-10.743h-12.164v10.743h-4.479
			V813.522z"/>
		<path style="fill:#FFFFFF;" d="M1694.196,817.674h-8.085v-4.152h20.687v4.152h-8.086v21.342h-4.516V817.674z"/>
	</g>
	<g>
		<path style="fill:#FFFFFF;" d="M1865.356,971.023c0-7.174,5.535-13.183,13.365-13.183c7.831,0,13.294,5.935,13.294,13.183
			c0,7.174-5.537,13.184-13.366,13.184C1870.819,984.207,1865.356,978.27,1865.356,971.023z M1887.316,971.023
			c0-4.953-3.604-9.069-8.667-9.069s-8.596,4.042-8.596,9.069c0,4.953,3.605,9.068,8.668,9.068S1887.316,976.048,1887.316,971.023z"
			/>
		<path style="fill:#FFFFFF;" d="M1897.439,958.277h11.436c2.913,0,5.207,0.801,6.664,2.257c1.129,1.129,1.712,2.513,1.712,4.298
			c0,3.059-1.749,4.698-3.642,5.681c2.986,1.02,5.062,2.731,5.062,6.264c0,4.552-3.751,6.992-9.433,6.992h-11.799V958.277z
			 M1907.965,969.021c2.876,0,4.807-1.129,4.807-3.534c0-2.003-1.603-3.242-4.479-3.242h-6.447v6.775H1907.965z M1909.275,979.8
			c3.06,0,4.916-1.202,4.916-3.569c0-2.148-1.711-3.423-5.244-3.423h-7.102v6.993H1909.275z"/>
		<path style="fill:#FFFFFF;" d="M1923.73,958.277h18.901v4.005h-14.423v6.629h12.783v4.005h-12.783v6.848h14.604v4.005h-19.083
			V958.277z"/>
		<path style="fill:#FFFFFF;" d="M1946.418,980.055l2.695-3.206c2.439,2.112,4.88,3.315,8.049,3.315
			c2.768,0,4.516-1.275,4.516-3.278c0-1.821-1.021-2.804-5.754-3.933c-5.428-1.275-8.486-2.877-8.486-7.648
			c0-4.37,3.643-7.393,8.705-7.393c3.714,0,6.664,1.129,9.249,3.206l-2.403,3.386c-2.294-1.712-4.589-2.622-6.92-2.622
			c-2.622,0-4.151,1.348-4.151,3.095c0,1.967,1.166,2.841,6.046,4.007c5.39,1.311,8.194,3.241,8.194,7.539
			c0,4.77-3.751,7.611-9.104,7.611C1953.155,984.133,1949.477,982.787,1946.418,980.055z"/>
		<path style="fill:#FFFFFF;" d="M1971.691,958.277h4.479v25.493h-4.479V958.277z"/>
		<path style="fill:#FFFFFF;" d="M1989.244,962.429h-8.085v-4.152h20.686v4.152h-8.085v21.341h-4.516V962.429z"/>
		<path style="fill:#FFFFFF;" d="M2014.081,973.718l-10.125-15.441h5.28l7.139,11.289l7.211-11.289h5.135l-10.125,15.331v10.161
			h-4.515V973.718z"/>
	</g>
	<g>
		<path style="fill:#FFFFFF;" d="M1959.673,1167.711h18.901v4.006h-14.422v6.629h12.783v4.005h-12.783v6.848h14.604v4.006h-19.083
			V1167.711z"/>
		<path style="fill:#FFFFFF;" d="M1991.429,1180.238l-8.923-12.527h5.281l6.336,9.141l6.375-9.141h5.134l-8.886,12.455l9.25,13.038
			h-5.281l-6.699-9.651l-6.739,9.651h-5.134L1991.429,1180.238z"/>
		<path style="fill:#FFFFFF;" d="M2016.883,1171.863h-8.084v-4.152h20.685v4.152h-8.085v21.341h-4.516V1171.863z"/>
		<path style="fill:#FFFFFF;" d="M2034.218,1167.711h11.362c5.973,0,9.469,3.204,9.469,8.12c0,4.188-2.513,6.701-6.082,7.722
			l6.883,9.651h-5.281l-6.336-8.886h-5.536v8.886h-4.479V1167.711z M2045.252,1180.348c3.205,0,5.244-1.676,5.244-4.333
			c0-2.731-1.967-4.226-5.281-4.226h-6.519v8.559H2045.252z"/>
		<path style="fill:#FFFFFF;" d="M2060.547,1167.711h18.9v4.006h-14.422v6.629h12.783v4.005h-12.783v6.848h14.604v4.006h-19.083
			V1167.711z"/>
		<path style="fill:#FFFFFF;" d="M2084.946,1167.711h4.771l7.757,12.055l7.757-12.055h4.771v25.493h-4.479v-18.283l-8.049,12.019
			h-0.146l-7.976-11.944v18.209h-4.405V1167.711z"/>
		<path style="fill:#FFFFFF;" d="M2116.555,1167.711h18.901v4.006h-14.423v6.629h12.783v4.005h-12.783v6.848h14.604v4.006h-19.083
			V1167.711z"/>
		<path style="fill:#FFFFFF;" d="M2140.954,1167.711h4.479v21.414h13.402v4.079h-17.881V1167.711z"/>
		<path style="fill:#FFFFFF;" d="M2166.264,1183.152l-10.124-15.441h5.279l7.139,11.289l7.211-11.289h5.135l-10.124,15.332v10.161
			h-4.516V1183.152z"/>
		<path style="fill:#FFFFFF;" d="M1988.041,1224.158c0-7.175,5.535-13.184,13.365-13.184c7.831,0,13.294,5.936,13.294,13.184
			c0,7.174-5.537,13.184-13.366,13.184C1993.504,1237.342,1988.041,1231.404,1988.041,1224.158z M2010.001,1224.158
			c0-4.953-3.604-9.069-8.667-9.069s-8.596,4.042-8.596,9.069c0,4.953,3.606,9.067,8.668,9.067
			C2006.469,1233.226,2010.001,1229.184,2010.001,1224.158z"/>
		<path style="fill:#FFFFFF;" d="M2020.124,1211.412h11.436c2.913,0,5.208,0.801,6.665,2.257c1.129,1.129,1.711,2.513,1.711,4.298
			c0,3.06-1.748,4.698-3.642,5.682c2.987,1.02,5.062,2.73,5.062,6.264c0,4.552-3.751,6.992-9.432,6.992h-11.8V1211.412z
			 M2030.649,1222.155c2.876,0,4.807-1.129,4.807-3.534c0-2.002-1.603-3.241-4.479-3.241h-6.447v6.775H2030.649z M2031.96,1232.935
			c3.06,0,4.916-1.202,4.916-3.569c0-2.147-1.711-3.423-5.243-3.423h-7.103v6.992H2031.96z"/>
		<path style="fill:#FFFFFF;" d="M2046.416,1211.412h18.9v4.005h-14.422v6.629h12.783v4.005h-12.783v6.848h14.604v4.006h-19.082
			V1211.412z"/>
		<path style="fill:#FFFFFF;" d="M2069.104,1233.189l2.694-3.205c2.44,2.112,4.88,3.315,8.049,3.315
			c2.768,0,4.516-1.275,4.516-3.278c0-1.821-1.02-2.804-5.754-3.934c-5.427-1.275-8.486-2.877-8.486-7.648
			c0-4.37,3.644-7.393,8.705-7.393c3.714,0,6.664,1.129,9.25,3.205l-2.403,3.387c-2.295-1.712-4.59-2.622-6.921-2.622
			c-2.622,0-4.151,1.348-4.151,3.095c0,1.968,1.166,2.841,6.047,4.007c5.389,1.312,8.193,3.241,8.193,7.539
			c0,4.771-3.751,7.61-9.104,7.61C2075.84,1237.268,2072.161,1235.922,2069.104,1233.189z"/>
		<path style="fill:#FFFFFF;" d="M2094.376,1211.412h4.479v25.492h-4.479V1211.412z"/>
		<path style="fill:#FFFFFF;" d="M2111.929,1215.563h-8.084v-4.151h20.685v4.151h-8.085v21.341h-4.516V1215.563z"/>
		<path style="fill:#FFFFFF;" d="M2136.766,1226.853l-10.125-15.44h5.28l7.139,11.289l7.211-11.289h5.135l-10.124,15.331v10.161
			h-4.516V1226.853z"/>
	</g>
	<g>
		<g>
			<path style="fill:#FFB27D;" d="M2466.513,1691.517c0,0,5.926,63.689-1.306,67.25l-92.558-0.19c0,0,0-10.682,14.866-13.056
				c14.866-2.373,40.983-11.077,45.402-30.463C2437.338,1695.671,2466.513,1691.517,2466.513,1691.517z"/>
			<path style="fill:#FFB27D;" d="M2478.47,1527.226c-3.401,92.762-10.247,180.525-10.247,180.525s-4.388,4.696-18.28,8.616
				c-10.008,2.827-17.021-1.309-17.021-1.309s-6.467-51.932-8.469-64.214c-2.121-13.032-89.577-274.1-78.253-370.353
				c7.95-67.573,44.735-111.651,44.735-111.651h72.199c0,0,0.092,49.95,6.215,117.019c1.736,19.009,3.955,39.396,6.797,60.406
				C2481.619,1386.796,2480.989,1458.386,2478.47,1527.226z"/>
			<path style="fill:#F3A36C;" d="M2478.47,1527.226c-16.034-40.383-60.512-152.992-65.704-172.456
				c-6.349-23.796-21.592-37.737-21.592-37.737l78.176-31.173c1.736,19.009,3.955,39.396,6.797,60.406
				C2481.619,1386.796,2480.989,1458.386,2478.47,1527.226z"/>
			<path style="fill:#163560;" d="M2449.614,820.806c-19.439-4.85-31.957,4.096-31.957,4.096
				c-54.414,6.405-55.138,71.818-49.354,92.888c5.772,21.069,13.645,43.305-3.414,76.535
				c-49.277,95.989,94.566,65.407,94.566,65.407c-13.975-63.972,67.905-58.938,66.098-51.687
				C2629.014,1008.196,2493.822,831.836,2449.614,820.806z"/>
			<path style="fill:#FFB27D;" d="M2338.151,1249.563c0,0,9.226,21.061,9.573,26.879c0.348,5.817-2.414,15.07-4.35,15.968
				c-1.935,0.897-2.98-11.073-3.853-10.419c-0.873,0.653,2.277,19.674-0.918,21.654c-3.196,1.98-15.228-15.91-16.972-24.318
				c-1.745-8.409,0.031-22.176,0.031-22.176L2338.151,1249.563z"/>
			<path style="fill:#FFB27D;" d="M2431.854,1062.69c0,0-13.567,15.132-25.712,40.258c-4.988,10.312-9.733,22.313-13.207,35.646
				c-8.419,32.332-41.421,94.961-52.703,115.877c-2.394,4.427-3.808,6.988-3.808,6.988l-14.981-2.846
				c0,0,9.29-84.089,15.751-108.051c6.754-25.033,8.83-102.929,19.225-128.506c13.459-33.102,41.931-37.429,41.931-37.429
				L2431.854,1062.69z"/>
			<path style="fill:#F3A36C;" d="M2406.142,1102.948c-4.988,10.312-9.733,22.313-13.207,35.646
				c-8.419,32.332-24.058,77.213-52.703,115.877c0,0,4.712-51.842,14.37-67.743c9.668-15.902,10.848-116.337,10.848-116.337
				L2406.142,1102.948z"/>
			<path style="fill:#FFB27D;" d="M2605.945,1685.135c0,0,16.474,15.033,13.259,25.716c-3.214,10.682-18.081,17.804-20.09,30.859
				s-10.045,20.177-17.277,20.177c-7.231,0-34.48,0-34.48,0s-5.323-9.188,7.534-11.957s17.705-18.111,16.901-32.354
				c-0.804-14.243,1.206-33.233,1.206-33.233l27.322-6.33L2605.945,1685.135z"/>
			<path style="fill:#FFB27D;" d="M2503.994,1166.366c0,0,58.14,26.246,71.53,96.392c14.592,76.431-21.077,161.748-12.993,197.74
				c8.085,35.991,37.789,105.255,37.789,217.515c0,0-3.088,6.435-12.621,9.862c-3.049,1.096-11.457,4.075-15.423,4.984
				c0,0-3.729-14.264-8.888-25.136c-23.295-49.102-90.355-156.885-93.636-183.954c-2.32-19.157-22.519-145.944-66.575-220.342
				c-10.578-17.861,6.49-88.89,6.49-88.89L2503.994,1166.366z"/>
			<path style="fill:#FFB27D;" d="M2532.471,1234.599c-19.047-42.715-30.702-54.975-28.477-68.232
				c1.656-9.867-5.043-183.978-5.043-183.978c-2.26-0.7-6.789-1.327-9.267-1.877c-7.813-1.735-13.034-7.792-16.97-14.759
				c-5.018-8.882-10.379-26.537-10.318-43.337l-18.393,0.977l-26.105,8.509c0,0,6.526,16.082,6.555,28.244c0,0.101,0,0.202,0,0.303
				c0.051,10.563-6.879,19.886-17.027,22.815c-5.182,1.496-9.69,2.774-9.69,2.774s-15.064,43.008-17.941,87.189
				s27.393,63.375-0.228,151.666C2351.366,1315.065,2542.992,1258.201,2532.471,1234.599z"/>
			<path style="fill:#E8945B;" d="M2418.805,935.353c0,0,5.62,12.63,5.648,24.792c23.018-3.414,33.066-21.894,38.039-33.501
				L2418.805,935.353z"/>
			<path style="fill:#FFB27D;" d="M2525.073,1059.407c0,0,9.155,88.106,16.43,110.607c9.472,29.293,0,44.808,0,44.808
				l-92.079,22.707l-80.845-11.479c0,0-4.266-18.416-2.293-33.438c2.015-15.344,10.27-27.536,10.443-50.636
				c0.323-42.923-22.123-49.381-14.549-85.369c8.198-38.949,35.551-70.572,35.551-70.572s43.97,43.053,101.222-3.65
				L2525.073,1059.407z"/>
			<g>
				<path style="fill:#FFB27D;" d="M2419.309,953.322c0,0,53.042-11.726,45.231-44.645c-7.811-32.919-6.226-56.603-40.421-50.508
					c-34.196,6.095-37.771,20.212-37.837,31.834C2386.217,901.625,2405.311,955.524,2419.309,953.322z"/>
				<path style="fill:#163560;" d="M2399.863,863.101c0,0,23.672,35.161,47.233,35.577c23.562,0.416,31.772-7.829,31.772-7.829
					s-20.254-9.467-29.418-32.238C2449.451,858.61,2406.395,842.123,2399.863,863.101z"/>
				<path style="fill:#163560;" d="M2404.196,865.38c0,0-9.771,6.568-12.32,15.444c-2.493,8.68-3.755,19.689,0.062,31.916
					c0,0-17.155-23.644-8.447-41.411C2392.725,852.491,2404.196,865.38,2404.196,865.38z"/>
			</g>
			<path style="fill:#FFE6CF;" d="M2579.027,1307.969c0,0-44.945-10.904-93.041-4.171c-18.995,2.652-38.486,8.063-55.885,17.979
				c0,0-51.833-10.449-84.419-6.103c0,0-10.807-43.134,18.512-104.652c0,0,62.835,4.549,143.67-6.972
				c12.255-1.742,24.923-3.862,37.85-6.417C2545.714,1197.634,2587.664,1241.914,2579.027,1307.969z"/>
			<path style="fill:#FFE6CF;" d="M2534.543,1134.861c-9,2.366-17.553,4.473-25.664,6.349c-109.565,25.314-140.08,8.09-140.08,8.09
				s-8.37-47.08-3.352-77.21c5.024-30.13,32.9-87.463,32.9-87.463l10.765-1.918c0,0-7.854,33.006-9.246,44.184
				c-2.058,16.461,15.095,20.951,38.19,16.799c36.736-6.605,45.816-65.287,45.816-65.287c8.731-0.362,15.824,2.708,15.824,2.708
				c-5.306,32.698,0.608,62.526,8.706,85.42c0.007,0.007,0.007,0.021,0.007,0.035c9.875,27.89,22.977,45.498,22.977,45.498
				L2534.543,1134.861z"/>
			<path style="fill:#F2C9A5;" d="M2579.027,1307.969c0,0-44.945-10.904-93.041-4.171c38.878-41.874,21.878-99.747,21.878-99.747
				c12.255-1.742,24.923-3.862,37.85-6.417C2545.714,1197.634,2587.664,1241.914,2579.027,1307.969z"/>
			<path style="fill:#E8945B;" d="M2423.313,1176.989c0,2.157-1.212,3.905-2.707,3.905c-1.494,0-2.706-1.748-2.706-3.905
				s1.212-3.906,2.706-3.906C2422.101,1173.083,2423.313,1174.832,2423.313,1176.989z"/>
			<path style="fill:#FFB27D;" d="M2499.699,981.115c0,0,24.311,6.443,33.189,21.508c8.879,15.065,60.422,93.739,67.432,133.076
				c7.009,39.337-41.535,134.75-41.535,134.75l-13.072-8.99c0,0,5.764-109.515,0-120.738c-6.735-13.112-14.322-28.654-14.322-28.654
				s-29.148-66.645-29.877-69.912C2493.523,1006.304,2499.699,981.115,2499.699,981.115z"/>
			<path style="fill:#FFB27D;" d="M2546.057,1254.471c0,0-8.516,2.442-13.168,5.234c-4.652,2.793-15.393,13.813-12.882,15.766
				s9.304-5.021,12.882-5.021s-16.509,18.691-14.834,22.598c1.674,3.906,24.708,1.953,32.301-4.464
				c7.594-6.417,12.057-28.878,12.057-28.878L2546.057,1254.471z"/>
			<path style="fill:#F2C9A5;" d="M2534.543,1134.861c-9,2.366-17.553,4.473-25.664,6.349c-12.416-23.643,1.029-70.177-0.469-74.642
				c9.875,27.89,22.977,45.498,22.977,45.498L2534.543,1134.861z"/>
		</g>
		<g>
			<rect x="2179.138" y="1758.539" style="fill:#B0D0FF;" width="582.491" height="21.163"/>
			<rect x="2201.242" y="1779.702" style="fill:#2E3552;" width="18.414" height="13.472"/>
			<rect x="2701.742" y="1779.702" style="fill:#2E3552;" width="18.413" height="13.472"/>
			<path style="fill:#2E3552;" d="M2322.689,1441.33H2160.19c-3.556,0-6.767-2.125-8.155-5.398l-14.805-34.872
				c-1.641-3.864,1.195-8.149,5.394-8.149h165.644l18.158,42.774C2327.563,1438.361,2325.598,1441.33,2322.689,1441.33z"/>
			<path style="fill:#B0D0FF;" d="M2324.119,1441.33h-154.063c-4.801,0-9.137-2.87-11.014-7.29l-15.364-36.192
				c-0.994-2.342,0.725-4.938,3.269-4.938h161.438c4.664,0,8.878,2.788,10.701,7.082l12.658,29.817
				C2334.063,1435.272,2330.054,1441.33,2324.119,1441.33z"/>
			<polygon style="fill:#FFFFFF;" points="2319.454,1425.902 2166.709,1425.902 2154.992,1398.283 2307.736,1398.283 			"/>
			<rect x="2229.353" y="1432.891" style="fill:#B0D0FF;" width="15.064" height="328.996"/>
		</g>
	</g>
	<g>
		<path style="fill:#FFFFFF;" d="M1061.808,1191.883v-13.488H1067v13.353c0,3.845,1.922,5.834,5.092,5.834
			c3.17,0,5.092-1.922,5.092-5.665v-13.521h5.193v13.318c0,7.149-4.013,10.657-10.353,10.657
			C1065.685,1202.37,1061.808,1198.828,1061.808,1191.883z"/>
		<path style="fill:#FFFFFF;" d="M1087.675,1178.395h4.789l11.061,14.533v-14.533h5.126v23.604h-4.418l-11.432-15.006v15.006h-5.125
			V1178.395z"/>
		<path style="fill:#FFFFFF;" d="M1114.318,1178.395h9.206c7.419,0,12.544,5.091,12.544,11.802c0,6.644-5.125,11.803-12.544,11.803
			h-9.206V1178.395z M1123.524,1197.312c4.249,0,7.115-2.867,7.115-7.115c0-4.182-2.867-7.116-7.115-7.116h-4.013v14.231H1123.524z"
			/>
		<path style="fill:#FFFFFF;" d="M1140.691,1178.395h17.804v4.619h-12.646v4.788h11.128v4.62h-11.128v4.957h12.814v4.62h-17.973
			V1178.395z"/>
		<path style="fill:#FFFFFF;" d="M1163.288,1178.395h10.791c3.001,0,5.328,0.843,6.879,2.394c1.315,1.315,2.023,3.17,2.023,5.463
			c0,3.811-2.057,6.204-5.058,7.317l5.766,8.431h-6.069l-5.126-7.555h-4.013v7.555h-5.193V1178.395z M1173.741,1189.858
			c2.529,0,3.979-1.348,3.979-3.405c0-2.226-1.551-3.373-4.081-3.373h-5.159v6.778H1173.741z"/>
		<path style="fill:#FFFFFF;" d="M1185.344,1178.395h5.564l4.89,15.983l5.294-16.052h4.451l5.294,16.052l4.89-15.983h5.429
			l-8.06,23.772h-4.518l-5.328-15.443l-5.328,15.443h-4.519L1185.344,1178.395z"/>
		<path style="fill:#FFFFFF;" d="M1225.004,1178.395h17.805v4.619h-12.646v4.788h11.128v4.62h-11.128v4.957h12.814v4.62h-17.973
			V1178.395z"/>
		<path style="fill:#FFFFFF;" d="M1247.836,1178.395h5.193v23.604h-5.193V1178.395z"/>
		<path style="fill:#FFFFFF;" d="M1257.886,1190.196c0-6.711,5.227-12.207,12.376-12.207c4.25,0,6.812,1.146,9.273,3.236
			l-3.271,3.946c-1.821-1.518-3.439-2.395-6.171-2.395c-3.776,0-6.778,3.339-6.778,7.419c0,4.315,2.968,7.486,7.149,7.486
			c1.889,0,3.575-0.472,4.89-1.416v-3.372h-5.227v-4.485h10.251v10.251c-2.428,2.057-5.766,3.743-10.083,3.743
			C1262.945,1202.403,1257.886,1197.243,1257.886,1190.196z"/>
		<path style="fill:#FFFFFF;" d="M1285.373,1178.395h5.193v9.34h9.577v-9.34h5.193v23.604h-5.193v-9.476h-9.577v9.476h-5.193
			V1178.395z"/>
		<path style="fill:#FFFFFF;" d="M1316.5,1183.182h-7.182v-4.787h19.558v4.787h-7.183v18.817h-5.193V1183.182z"/>
	</g>
	<g>
		<path style="fill:#2C3A64;" d="M863.48,973.773c0,0-21.178-36.662-67.025-11.654c-32.457,17.704-25.615,47.464-34.271,58.699
			c-8.656,11.236-56.962,16.206-43.069,74.561c8.468,35.566,120.259,85.687,113.654,115.743c0,0,55.381-67.349,11.236-97.864
			c-20.007-13.83-31.46-40.483-29.961-46.166C815.542,1061.41,863.48,973.773,863.48,973.773z"/>
		<path style="fill:#FFB27D;" d="M823.109,1149.993c0,0,30.636,126.743,60.71,152.081c9.514,8.016,28.206,24.126,43.779,34.817
			c14.015,9.622,18.682,11.101,18.682,11.101l-12.994,12.372c0,0-2.623-5.048-11.097-8.197
			c-22.444-8.343-68.026-22.356-80.142-36.602c-16.69-19.624-62.386-117.952-62.386-117.952L823.109,1149.993z"/>
		<g>
			<path style="fill:#EF802E;" d="M1172.457,1658.386c0,0-11.775,26.026-54.777,46.37c-0.017,0.006-0.017,0.006-0.034,0.011
				c-18.067,8.538-41.641,16.09-72.18,20.27c-94.084,44.841-142.753,13.985-142.753,13.985
				c-125.245-50.344-176.964-219.172-86.104-288.039c26.571-20.14,53.308-26.17,76.713-25.659
				c40.99,0.914,81.075-11.068,114.821-34.323c19.285-13.273,44.945-22.905,78.21-20.653c15.458,1.039,29.723,5.086,42.661,11.565
				l1.517,0.761C1211.544,1424.76,1238.646,1563.219,1172.457,1658.386z"/>
			<path style="fill:#F99746;" d="M1172.457,1658.386c0,0-11.775,26.026-54.777,46.37c-0.017,0.006-0.017,0.006-0.034,0.011
				c-50.797,19.947-34.167-7.643-90.729,9.266c-56.579,16.913-95.723,8.341-156.753-67.735
				c-61.03-76.076-57.012-166.266-4.109-192.353c52.903-26.087,94.177,9.514,150.975-57.271
				c39.251-46.153,111.984-14.762,111.984-14.762l1.517,0.761C1211.544,1424.76,1238.646,1563.219,1172.457,1658.386z"/>
			<path style="fill:#82B378;" d="M1030.264,1278.978c34.352,26.92,55.909,54.703,55.909,54.703s-59.859,15.61-82.401,0.332
				c-26.607-18.032-36.361-16.944-61.607-17.602C942.165,1316.411,995.913,1252.057,1030.264,1278.978z"/>
			<g>
				<path style="fill:#2B478B;" d="M956.548,1433.233L956.548,1433.233c-21.992-25.302-25.684-63.74-24.908-91.529
					c0.619-22.116,5.219-53.099,7.607-67.886c0.505-3.125,4.551-4.034,6.363-1.438l4.798,6.872
					c4.807,6.886,6.382,15.519,4.276,23.648c-6.474,24.986-17.398,82.134,6.354,119.389
					C963.709,1426.48,960.464,1437.772,956.548,1433.233z"/>
			</g>
			<path style="fill:#FFB380;" d="M1078.003,1398.624c0,0,44.34,0.081,54.581,30.525c10.241,30.443-20.088,36.401-39.806,25.187
				C1073.06,1443.121,1053.676,1404.734,1078.003,1398.624z"/>
		</g>
		<path style="fill:#AEC3FF;" d="M535.175,1372.66c0.268,0.484,0.556,0.986,0.842,1.488c6.704,11.65,22.083,40.205,39.022,71.448
			c8.013,14.824,16.401,30.258,24.36,44.777c13.712,25.059,26.188,47.375,33.466,59.17c7.403,11.991,12.852,20.416,15.057,23.786
			c0.018,0.019,0.018,0.019,0.018,0.019c0.664,1.039,0.807,2.259,0.717,3.477c-0.771,10.576-0.556,21.08,0.484,31.423
			c10.217,101.652,78.762,156.127,78.762,156.127l20.381,3.011c0,0-28.841-106.851-37.338-167.258
			c-1.434-10.235-2.061-18.534-1.56-23.947c1.506-15.738-1.291-38.844-6.578-65.373c-9.411-47.143-26.672-105.004-41.676-151.322
			c-0.95-2.958-29.612-106.636-29.612-106.636c-24.055,21.026-111.798,29.702-111.798,29.702S504.846,1318.725,535.175,1372.66z"/>
		<path style="fill:#2B478B;" d="M791.06,1793.174h-85.061c0,0-2.039-12.964,2.404-22.799c4.257-9.438,10.325-9.738,0.775-24.531
			c5.405,5.564,22.78,7.867,35.077,6.213c1.507,2.442,9.714,18.831,14.747,22.447
			C764.561,1778.498,789.348,1777.074,791.06,1793.174z"/>
		<path style="fill:#8FA2FF;" d="M535.175,1372.66c0.268,0.484,0.556,0.986,0.842,1.488c6.704,11.65,42.96,78.618,59.899,109.861
			c-19.627-80.753-5.976-161.506-5.976-161.506L535.175,1372.66z"/>
		<path style="fill:#2C3A64;" d="M851.879,968.613c0.556-2.235-48.583,22.208-51.074,24.972
			c-23.046,25.563-16.475,58.922-3.288,59.242c8.458,0.205,6.818,14.266,6.818,14.266l94.215-39.855
			C898.551,1027.237,887.207,961.087,851.879,968.613z"/>
		<path style="fill:#F9DDBF;" d="M820.218,1130.96c0,0,14.338,28.64,12.548,51.884c0,0-17.288,27.29-62.125,34.199
			C770.641,1217.043,809.19,1130.938,820.218,1130.96z"/>
		<path style="fill:#AEC3FF;" d="M601.486,1288.885l0.288-15.909c-31.697,3.997-109.291-37.877-109.291-37.877
			s-33.161,22.056-37.7,85.042c-2.216,30.742-16.233,160.759-17.783,199.582c-0.566,14.071-0.753,24.113-0.817,28.126
			c0.007,0.021,0.006,0.03,0.004,0.04c-0.019,1.224-0.594,2.305-1.348,3.274c-6.558,8.335-12.249,17.167-17.175,26.326
			c-48.367,89.989-23.074,212.267-23.074,212.267l11.232-2.855c0,0,40.897-126.76,67.625-181.59
			c4.537-9.3,8.657-16.533,12.105-20.722c10.05-12.206,20.647-32.936,31.093-57.883
			C536.391,1479.541,601.486,1288.885,601.486,1288.885z"/>
		<path style="fill:#2B478B;" d="M462.232,1793.174h-85.06c0,0-2.039-12.964,2.404-22.799c4.257-9.438,10.925-13.728,9.329-25.146
			c5.405,5.564,14.214,11.797,26.511,10.143c1.507,2.442,9.726,15.516,14.759,19.132
			C435.734,1778.498,460.52,1777.074,462.232,1793.174z"/>
		<path style="fill:#F9DDBF;" d="M764.898,1235.31c-11.426,1.948,1.866,11.031-13.849,12.739
			c-22.366,2.441-45.459,4.111-57.556,8.936c-4.412,1.76-7.363,3.933-8.284,6.711c-5.243,15.768-38.452,42.861-38.452,42.861
			c-148.114-6.741-157.654-72.756-157.654-72.756c96.129-93.36,177.908-144.249,245.497-150.548
			c16.45-1.533,38.622,0.525,49.025,5.156c23.639,10.524,36.594,42.551,36.594,42.551S808.311,1227.904,764.898,1235.31z"/>
		<path style="fill:#F2C9A5;" d="M751.049,1248.049c-22.366,2.441-45.459,4.111-57.556,8.936
			c-4.943-73.87,29.917-129.434,29.917-129.434S746.15,1220.095,751.049,1248.049z"/>
		<path style="fill:#FFB27D;" d="M770.346,1115.046c0,0-56.246-3.072-66.24,32.241c-9.994,35.313,18.751,176.267,24.945,190.814
			c11.277,26.486,64.757,105.548,64.757,105.548l19.429-5.895c0,0-34.423-119.205-42.596-130.632
			C757.81,1289.184,787.182,1130.409,770.346,1115.046z"/>
		<path style="fill:#FFB27D;" d="M805.311,1414.348c0,0,6.442,18.983,8.741,25.833c1.21,3.604,4.888,5.835,6.192,7.428
			c3.784,4.622,14.793,15.81,14.985,22.357c0,0-0.555,2.907-2.916,2.376c-1.934-0.435-7.787-5.963-12.153-7.626
			c-1.357-0.517-2.844,0.292-3.135,1.716c-0.604,2.959-1.325,8.467,0.268,13.33c1.342,4.099,4.474,23.512,1.018,23.613
			c-11.485,0.336-17.921-16.667-21.666-25.916c-2.118-5.23-2.148-16.671-1.648-26.818c0.503-10.185-13.115-29.186-13.115-29.186
			L805.311,1414.348z"/>
		<path style="fill:#F9DDBF;" d="M693.013,1194.51c0.147,0.827,53.227,9.766,86.425-7.086c0,0,27.736-86.888-11.899-82.731
			c-39.635,4.157-63.105,16.642-64.104,35.617C702.436,1159.285,693.013,1194.51,693.013,1194.51z"/>
		<path style="fill:#FFB27D;" d="M782.36,1094.502c4.226,13.243,18.322,50.98,37.858,36.458c-0.663-2.814,3.441-11.006,8.281-19.323
			c6.185-10.629,13.551-21.492,13.551-21.492l-31.835-27.891l-1.9-1.667c-8.325,14.537-16.512,21.535-23.681,26.886
			C782.455,1089.099,781.533,1091.911,782.36,1094.502z"/>
		<path style="fill:#ED985F;" d="M842.047,1090.156c0,0-7.359,10.839-13.545,21.481c-19.787-12.198-19.809-36.695-18.284-49.385
			L842.047,1090.156z"/>
		<path style="fill:#FFB27D;" d="M842.93,1104.131c0,0-48.044-26.733-30.935-56.396s22.431-53.091,53.829-37.277
			c31.398,15.815,30.777,30.541,27.475,41.831C889.996,1063.578,855.868,1110.32,842.93,1104.131z"/>
		<path style="fill:#2C3A64;" d="M901.414,1034.987c-2.201-13.171-8.891-14.428-13.556-13.549
			c-17.743-29.342-46.731-17.891-46.731-17.891c-15.482,19.43-37.867,22.745-37.867,22.745s5.576,10.374,28.546,16.795
			c7.017,1.961,14.981,0.773,22.661-1.812c-15.937,8.886-32.603,12.29-32.603,12.29c30.271,2.77,59.073-24.905,62.06-27.865
			c1.397,4.289,3.846,13.268,2.38,19.832c-1.993,8.921-1.628,16.72-5.077,27.168
			C881.228,1072.701,904.714,1054.739,901.414,1034.987z"/>
		<path style="fill:#FFB27D;" d="M947.901,1340.739c0,0-0.784-0.447-2.653,2.808c-1.531,2.666-2.335,2.446-6.618,5.022
			c-8.028,4.83-2.667,10.638,4.736,13.554c5.295,2.086,8.541-1.271,9.077-3.369C953.383,1355.081,954.524,1347.291,947.901,1340.739
			z"/>
		<path style="fill:#FFB27D;" d="M923.37,1344.638c0,0,7.004,5.243,13.326-4.108c1.339-1.981,6.811-3.308,7.673-3.94
			c2.817-2.068,3.772-3.559,3.243-4.681c-0.252-0.533-0.917-0.747-1.528-0.52c-1.878,0.701-7.03,2.328-14.253,2.247
			c-1.433-0.016-5.452,2.126-5.991,2.642C924.099,1337.94,920.762,1343.579,923.37,1344.638z"/>
	</g>
	<g>
		<g>
			<path style="fill:#AFCDFB;" d="M1246.809,1373.845h158.587c39.038,0,69.779,10.735,89.297,30.255
				c15.615,15.614,23.422,34.645,23.422,59.043c0,38.549-20.495,60.019-44.892,73.683c39.524,15.126,63.922,38.061,63.922,84.904
				c0,62.46-50.747,93.689-127.845,93.689h-162.492V1373.845z M1389.294,1511.938c33.181,0,54.163-10.735,54.163-37.085
				c0-22.446-17.566-35.133-49.284-35.133h-74.17v72.218H1389.294z M1409.3,1649.544c33.181,0,53.188-11.711,53.188-38.062
				c0-22.934-17.08-37.085-55.628-37.085h-86.857v75.146H1409.3z"/>
		</g>
		<g>
			<path style="fill:#AFCDFB;" d="M1599.104,1373.845h81.002l89.785,144.438l89.785-144.438h81.001v341.574h-74.657V1492.42
				l-96.129,145.9h-1.952l-95.152-144.437v221.535h-73.683V1373.845z"/>
		</g>
		<g>
			<path style="fill:#AFCDFB;" d="M2026.063,1373.845h75.146v341.574h-75.146V1373.845z"/>
		</g>
	</g>
	<path style="fill:#2E3552;" d="M3080.596,1800.221H109.205c-1.753,0-3.187-1.434-3.187-3.187v-0.674
		c0-1.753,1.434-3.187,3.187-3.187h2971.391c1.752,0,3.187,1.434,3.187,3.187v0.674
		C3083.782,1798.787,3082.348,1800.221,3080.596,1800.221z"/>
</g>
</svg>
